<mxfile host="Electron" agent="Mozilla/5.0 (Windows NT 10.0; Win64; x64) AppleWebKit/537.36 (KHTML, like Gecko) draw.io/27.0.2 Chrome/134.0.6998.205 Electron/35.3.0 Safari/537.36" version="27.0.2">
  <diagram name="Page-1" id="avI3b0Oppp8bafd_PQ5q">
    <mxGraphModel dx="1426" dy="824" grid="1" gridSize="10" guides="1" tooltips="1" connect="1" arrows="1" fold="1" page="1" pageScale="1" pageWidth="850" pageHeight="1100" math="0" shadow="0">
      <root>
        <mxCell id="0" />
        <mxCell id="1" parent="0" />
        <mxCell id="cYHj2O94aimLerDhtO5--1" value="Login" style="ellipse;whiteSpace=wrap;html=1;" parent="1" vertex="1">
          <mxGeometry x="360" y="100" width="160" height="50" as="geometry" />
        </mxCell>
        <mxCell id="cYHj2O94aimLerDhtO5--2" value="Mencatat Pemasukan" style="ellipse;whiteSpace=wrap;html=1;" parent="1" vertex="1">
          <mxGeometry x="360" y="190" width="160" height="50" as="geometry" />
        </mxCell>
        <mxCell id="cYHj2O94aimLerDhtO5--3" value="Mencatat Pengeluaran" style="ellipse;whiteSpace=wrap;html=1;" parent="1" vertex="1">
          <mxGeometry x="360" y="280" width="160" height="50" as="geometry" />
        </mxCell>
        <mxCell id="cYHj2O94aimLerDhtO5--4" value="Melihat Daftar Transaksi" style="ellipse;whiteSpace=wrap;html=1;" parent="1" vertex="1">
          <mxGeometry x="360" y="370" width="160" height="50" as="geometry" />
        </mxCell>
        <mxCell id="cYHj2O94aimLerDhtO5--5" value="Mengedit Transaksi" style="ellipse;whiteSpace=wrap;html=1;" parent="1" vertex="1">
          <mxGeometry x="360" y="460" width="160" height="50" as="geometry" />
        </mxCell>
        <mxCell id="cYHj2O94aimLerDhtO5--6" value="Menghapus Transaksi" style="ellipse;whiteSpace=wrap;html=1;" parent="1" vertex="1">
          <mxGeometry x="360" y="550" width="160" height="50" as="geometry" />
        </mxCell>
        <mxCell id="cYHj2O94aimLerDhtO5--7" value="Melihat Laporan Keuangan" style="ellipse;whiteSpace=wrap;html=1;" parent="1" vertex="1">
          <mxGeometry x="360" y="640" width="160" height="50" as="geometry" />
        </mxCell>
        <mxCell id="cYHj2O94aimLerDhtO5--8" value="Mengelola Kategori Transaksi" style="ellipse;whiteSpace=wrap;html=1;" parent="1" vertex="1">
          <mxGeometry x="360" y="730" width="160" height="50" as="geometry" />
        </mxCell>
        <mxCell id="cYHj2O94aimLerDhtO5--13" style="rounded=0;orthogonalLoop=1;jettySize=auto;html=1;exitX=0.5;exitY=0.5;exitDx=0;exitDy=0;exitPerimeter=0;entryX=0;entryY=0.5;entryDx=0;entryDy=0;endArrow=none;startFill=0;" parent="1" source="cYHj2O94aimLerDhtO5--11" target="cYHj2O94aimLerDhtO5--1" edge="1">
          <mxGeometry relative="1" as="geometry" />
        </mxCell>
        <mxCell id="cYHj2O94aimLerDhtO5--14" style="rounded=0;orthogonalLoop=1;jettySize=auto;html=1;exitX=0.5;exitY=0.5;exitDx=0;exitDy=0;exitPerimeter=0;entryX=0;entryY=0.5;entryDx=0;entryDy=0;endArrow=none;startFill=0;" parent="1" source="cYHj2O94aimLerDhtO5--11" target="cYHj2O94aimLerDhtO5--2" edge="1">
          <mxGeometry relative="1" as="geometry" />
        </mxCell>
        <mxCell id="cYHj2O94aimLerDhtO5--15" style="rounded=0;orthogonalLoop=1;jettySize=auto;html=1;exitX=0.5;exitY=0.5;exitDx=0;exitDy=0;exitPerimeter=0;entryX=0;entryY=0.5;entryDx=0;entryDy=0;endArrow=none;startFill=0;" parent="1" source="cYHj2O94aimLerDhtO5--11" target="cYHj2O94aimLerDhtO5--3" edge="1">
          <mxGeometry relative="1" as="geometry" />
        </mxCell>
        <mxCell id="cYHj2O94aimLerDhtO5--16" style="rounded=0;orthogonalLoop=1;jettySize=auto;html=1;exitX=0.5;exitY=0.5;exitDx=0;exitDy=0;exitPerimeter=0;entryX=0;entryY=0.5;entryDx=0;entryDy=0;endArrow=none;startFill=0;" parent="1" source="cYHj2O94aimLerDhtO5--11" target="cYHj2O94aimLerDhtO5--4" edge="1">
          <mxGeometry relative="1" as="geometry" />
        </mxCell>
        <mxCell id="cYHj2O94aimLerDhtO5--17" style="rounded=0;orthogonalLoop=1;jettySize=auto;html=1;exitX=0.5;exitY=0.5;exitDx=0;exitDy=0;exitPerimeter=0;entryX=0;entryY=0.5;entryDx=0;entryDy=0;endArrow=none;startFill=0;" parent="1" source="cYHj2O94aimLerDhtO5--11" target="cYHj2O94aimLerDhtO5--5" edge="1">
          <mxGeometry relative="1" as="geometry" />
        </mxCell>
        <mxCell id="cYHj2O94aimLerDhtO5--29" style="rounded=0;orthogonalLoop=1;jettySize=auto;html=1;exitX=0.5;exitY=0.5;exitDx=0;exitDy=0;exitPerimeter=0;entryX=0;entryY=0.5;entryDx=0;entryDy=0;strokeWidth=1;endArrow=none;startFill=0;" parent="1" source="cYHj2O94aimLerDhtO5--11" target="cYHj2O94aimLerDhtO5--10" edge="1">
          <mxGeometry relative="1" as="geometry" />
        </mxCell>
        <mxCell id="cYHj2O94aimLerDhtO5--11" value="Karyawan" style="shape=umlActor;verticalLabelPosition=bottom;verticalAlign=top;html=1;outlineConnect=0;" parent="1" vertex="1">
          <mxGeometry x="170" y="440" width="30" height="60" as="geometry" />
        </mxCell>
        <mxCell id="cYHj2O94aimLerDhtO5--18" style="rounded=0;orthogonalLoop=1;jettySize=auto;html=1;exitX=0.5;exitY=0.5;exitDx=0;exitDy=0;exitPerimeter=0;entryX=1;entryY=0.5;entryDx=0;entryDy=0;endArrow=none;startFill=0;" parent="1" source="cYHj2O94aimLerDhtO5--12" target="cYHj2O94aimLerDhtO5--1" edge="1">
          <mxGeometry relative="1" as="geometry" />
        </mxCell>
        <mxCell id="cYHj2O94aimLerDhtO5--19" style="rounded=0;orthogonalLoop=1;jettySize=auto;html=1;exitX=0.5;exitY=0.5;exitDx=0;exitDy=0;exitPerimeter=0;entryX=1;entryY=0.5;entryDx=0;entryDy=0;endArrow=none;startFill=0;" parent="1" source="cYHj2O94aimLerDhtO5--12" target="cYHj2O94aimLerDhtO5--2" edge="1">
          <mxGeometry relative="1" as="geometry" />
        </mxCell>
        <mxCell id="cYHj2O94aimLerDhtO5--21" style="rounded=0;orthogonalLoop=1;jettySize=auto;html=1;exitX=0.5;exitY=0.5;exitDx=0;exitDy=0;exitPerimeter=0;entryX=1;entryY=0.5;entryDx=0;entryDy=0;endArrow=none;startFill=0;" parent="1" source="cYHj2O94aimLerDhtO5--12" target="cYHj2O94aimLerDhtO5--3" edge="1">
          <mxGeometry relative="1" as="geometry" />
        </mxCell>
        <mxCell id="cYHj2O94aimLerDhtO5--22" style="rounded=0;orthogonalLoop=1;jettySize=auto;html=1;exitX=0.5;exitY=0.5;exitDx=0;exitDy=0;exitPerimeter=0;entryX=1;entryY=0.5;entryDx=0;entryDy=0;endArrow=none;startFill=0;" parent="1" source="cYHj2O94aimLerDhtO5--12" target="cYHj2O94aimLerDhtO5--4" edge="1">
          <mxGeometry relative="1" as="geometry" />
        </mxCell>
        <mxCell id="cYHj2O94aimLerDhtO5--23" style="rounded=0;orthogonalLoop=1;jettySize=auto;html=1;exitX=0.5;exitY=0.5;exitDx=0;exitDy=0;exitPerimeter=0;entryX=1;entryY=0.5;entryDx=0;entryDy=0;endArrow=none;startFill=0;" parent="1" source="cYHj2O94aimLerDhtO5--12" target="cYHj2O94aimLerDhtO5--5" edge="1">
          <mxGeometry relative="1" as="geometry" />
        </mxCell>
        <mxCell id="cYHj2O94aimLerDhtO5--24" style="rounded=0;orthogonalLoop=1;jettySize=auto;html=1;exitX=0.5;exitY=0.5;exitDx=0;exitDy=0;exitPerimeter=0;entryX=1;entryY=0.5;entryDx=0;entryDy=0;endArrow=none;startFill=0;" parent="1" source="cYHj2O94aimLerDhtO5--12" target="cYHj2O94aimLerDhtO5--6" edge="1">
          <mxGeometry relative="1" as="geometry" />
        </mxCell>
        <mxCell id="cYHj2O94aimLerDhtO5--25" style="rounded=0;orthogonalLoop=1;jettySize=auto;html=1;exitX=0.5;exitY=0.5;exitDx=0;exitDy=0;exitPerimeter=0;entryX=1;entryY=0.5;entryDx=0;entryDy=0;endArrow=none;startFill=0;" parent="1" source="cYHj2O94aimLerDhtO5--12" target="cYHj2O94aimLerDhtO5--7" edge="1">
          <mxGeometry relative="1" as="geometry" />
        </mxCell>
        <mxCell id="cYHj2O94aimLerDhtO5--26" style="rounded=0;orthogonalLoop=1;jettySize=auto;html=1;exitX=0.5;exitY=0.5;exitDx=0;exitDy=0;exitPerimeter=0;entryX=1;entryY=0.5;entryDx=0;entryDy=0;endArrow=none;startFill=0;" parent="1" source="cYHj2O94aimLerDhtO5--12" target="cYHj2O94aimLerDhtO5--8" edge="1">
          <mxGeometry relative="1" as="geometry" />
        </mxCell>
        <mxCell id="cYHj2O94aimLerDhtO5--28" style="rounded=0;orthogonalLoop=1;jettySize=auto;html=1;exitX=0.5;exitY=0.5;exitDx=0;exitDy=0;exitPerimeter=0;entryX=1;entryY=0.5;entryDx=0;entryDy=0;endArrow=none;startFill=0;" parent="1" source="cYHj2O94aimLerDhtO5--12" target="cYHj2O94aimLerDhtO5--10" edge="1">
          <mxGeometry relative="1" as="geometry" />
        </mxCell>
        <mxCell id="cYHj2O94aimLerDhtO5--12" value="Pemilik" style="shape=umlActor;verticalLabelPosition=bottom;verticalAlign=top;html=1;outlineConnect=0;" parent="1" vertex="1">
          <mxGeometry x="680" y="440" width="30" height="60" as="geometry" />
        </mxCell>
        <mxCell id="cYHj2O94aimLerDhtO5--30" value="&lt;i&gt;Use Case Diagram&lt;/i&gt;" style="swimlane;whiteSpace=wrap;html=1;startSize=23;" parent="1" vertex="1">
          <mxGeometry x="280" y="60" width="320" height="850" as="geometry" />
        </mxCell>
        <mxCell id="cYHj2O94aimLerDhtO5--10" value="Logout" style="ellipse;whiteSpace=wrap;html=1;" parent="cYHj2O94aimLerDhtO5--30" vertex="1">
          <mxGeometry x="80" y="760" width="160" height="50" as="geometry" />
        </mxCell>
      </root>
    </mxGraphModel>
  </diagram>
</mxfile>
